<?xml version="1.0" encoding="UTF-8"?>
<svg xmlns="http://www.w3.org/2000/svg" width="64" height="64" viewBox="0 0 64 64" fill="none">
  <!-- Chinese jian sticker cursor: tip bottom-left hotspot ~(8,56) -->
  <defs>
    <linearGradient id="blade" x1="10" y1="56" x2="44" y2="28" gradientUnits="userSpaceOnUse">
      <stop offset="0%" stop-color="#f4f7fb"/>
      <stop offset="35%" stop-color="#c8d0dc"/>
      <stop offset="100%" stop-color="#8b93a3"/>
    </linearGradient>
    <linearGradient id="grip" x1="46" y1="22" x2="56" y2="12" gradientUnits="userSpaceOnUse">
      <stop offset="0%" stop-color="#ff5252"/>
      <stop offset="100%" stop-color="#b71c1c"/>
    </linearGradient>
    <filter id="soft" x="-20%" y="-20%" width="140%" height="140%">
      <feDropShadow dx="0" dy="1" stdDeviation="0.6" flood-color="#000" flood-opacity="0.35"/>
    </filter>
  </defs>
  <g filter="url(#soft)">
    <!-- white sticker outline -->
    <path d="M8.5 57.2 L13.8 59.8 L45.2 28.2 L50.5 22.8 L54.8 18.2 L58.2 11.5 L56.2 9.2 L51.5 13.8 L47.2 18.5 L41.8 23.2 L10.8 54.4 Z"
          fill="#ffffff" stroke="#ffffff" stroke-width="3.2" stroke-linejoin="round"/>
    <circle cx="58.6" cy="5.2" r="4.2" fill="#ffffff"/>
    <path d="M56.6 3.6 Q62.2 -1.2 60.4 5.8" fill="#ffffff" stroke="#ffffff" stroke-width="2.4" stroke-linejoin="round"/>

    <!-- blade -->
    <path d="M10.2 55.8 L13.2 58.4 L43.6 28 L40.6 25.4 Z" fill="url(#blade)"/>
    <path d="M11.2 55.6 L12.2 56.6 L42.2 26.6 L41.2 25.6 Z" fill="#ffffff" fill-opacity="0.55"/>
    <path d="M10.2 55.8 L8.4 57.8 L13.2 58.4 Z" fill="#e8edf4"/>

    <!-- guard -->
    <path d="M37.2 23.6 L48.8 35.2 L52.2 31.6 L47.6 23.8 L43.2 20.2 Z" fill="#3a414e" stroke="#1e232b" stroke-width="0.6"/>
    <path d="M38.6 24.6 L47.4 33.4 L49.6 31 L45.6 24.6 L41.8 21.8 Z" fill="#5a6373"/>
    <path d="M36.4 24.8 L34.2 27.2 L38.2 28.4 Z" fill="#2c323c"/>
    <path d="M49.6 34.6 L52 36.8 L50.2 32.6 Z" fill="#2c323c"/>

    <!-- red cord grip -->
    <path d="M46.8 20.4 L52.6 26.2 L57.4 16.2 L51.6 10.4 Z" fill="url(#grip)" stroke="#7f1212" stroke-width="0.5"/>
    <path d="M48.0 21.8 L52.4 17.4 M49.2 23.2 L53.6 18.8 M50.4 24.6 L54.8 20.2" stroke="#6d0f0f" stroke-width="1" stroke-linecap="round"/>
    <path d="M49.6 19.2 L51.4 24.2 M51.0 18.0 L52.8 23.0 M52.4 16.8 L54.2 21.8" stroke="#ff8a80" stroke-width="0.65" stroke-linecap="round" opacity="0.85"/>

    <!-- pommel -->
    <ellipse cx="54.8" cy="12.0" rx="3.2" ry="2.3" transform="rotate(-45 54.8 12)" fill="#6a7384" stroke="#2c323c" stroke-width="0.5"/>
    <ellipse cx="54.8" cy="12.0" rx="2.1" ry="1.3" transform="rotate(-45 54.8 12)" fill="#aeb6c4"/>

    <!-- tassel -->
    <path d="M56.2 10.2 L58.6 5.0" stroke="#9b1515" stroke-width="1.2" stroke-linecap="round"/>
    <circle cx="59.2" cy="3.8" r="1.7" fill="#e53935" stroke="#7f1212" stroke-width="0.45"/>
    <path d="M57.6 2.6 Q62.4 -2.4 61.0 4.2" fill="#e53935"/>
    <path d="M58.0 2.4 Q61.2 -0.6 60.4 3.8" fill="#ff7043"/>
    <path d="M58.4 1.8 L59.8 -1.6 M59.2 1.6 L60.8 -1.2 M59.8 2.0 L61.4 -0.6" stroke="#9b1515" stroke-width="0.55" stroke-linecap="round"/>
  </g>
</svg>
